M48
; DRILL file {KiCad (5.1.6)-1} date 09/14/20 23:14:03
; FORMAT={-:-/ absolute / metric / decimal}
; #@! TF.CreationDate,2020-09-14T23:14:03+08:00
; #@! TF.GenerationSoftware,Kicad,Pcbnew,(5.1.6)-1
FMAT,2
METRIC
T1C0.360
T2C1.000
%
G90
G05
T1
X136.25Y-116.5
X137.25Y-91.94
X137.65Y-114.5
X138.65Y-83.9
X138.73Y-115.22
X138.93Y-103.68
X139.05Y-113.4
X139.2Y-98.75
X139.65Y-92.7
X139.75Y-110.1
X139.75Y-115.815
X141.05Y-112.2
X141.75Y-112.9
X147.25Y-98.3
X147.85Y-96.4
X151.05Y-118.1
X152.75Y-118.2
X154.35Y-117.0
X155.05Y-119.4
X155.5Y-112.25
X155.5Y-114.5
X155.75Y-118.8
T2
X159.48Y-79.66
X159.48Y-82.2
X159.48Y-84.74
X159.48Y-87.28
X159.48Y-89.82
X159.48Y-92.36
X159.48Y-94.9
X159.48Y-97.44
X159.48Y-99.98
X159.48Y-102.52
X159.48Y-105.06
X159.48Y-107.6
X159.48Y-110.14
X159.48Y-112.68
X159.48Y-115.22
X159.48Y-117.76
X159.48Y-120.3
X159.48Y-122.84
X159.48Y-125.38
X159.48Y-127.92
X159.48Y-130.46
X156.94Y-79.66
X156.94Y-82.2
X156.94Y-84.74
X156.94Y-87.28
X156.94Y-89.82
X156.94Y-92.36
X156.94Y-94.9
X156.94Y-97.44
X156.94Y-99.98
X156.94Y-102.52
X156.94Y-105.06
X156.94Y-107.6
X156.94Y-110.14
X156.94Y-112.68
X156.94Y-115.22
X156.94Y-117.76
X156.94Y-120.3
X156.94Y-122.84
X156.94Y-125.38
X134.18Y-79.66
X134.18Y-82.2
X134.18Y-84.74
X134.18Y-87.28
X134.18Y-89.82
X134.18Y-92.36
X134.18Y-94.9
X134.18Y-97.44
X134.18Y-99.98
X134.18Y-102.52
X134.18Y-105.06
X134.18Y-107.6
X134.18Y-110.14
X134.18Y-112.68
X134.18Y-115.22
X134.18Y-117.76
X134.18Y-120.3
X134.18Y-122.84
X134.18Y-125.38
X134.18Y-127.92
X134.18Y-130.46
X131.54Y-79.66
X131.54Y-82.2
X131.54Y-84.74
X131.54Y-87.28
X131.54Y-89.82
X131.54Y-92.36
X131.54Y-94.9
X131.54Y-97.44
X131.54Y-99.98
X131.54Y-102.52
X131.54Y-105.06
X131.54Y-107.6
X131.54Y-110.14
X131.54Y-112.68
X131.54Y-115.22
X131.54Y-117.76
X131.54Y-120.3
X131.54Y-122.84
X131.54Y-125.38
X139.16Y-120.3
X139.16Y-122.84
X141.7Y-120.3
X141.7Y-122.84
X144.24Y-120.3
X144.24Y-122.84
X146.78Y-120.3
X146.78Y-122.84
X149.32Y-120.3
X149.32Y-122.84
X151.86Y-120.3
X151.86Y-122.84
T0
M30
