%TF.GenerationSoftware,KiCad,Pcbnew,(5.1.6)-1*%
%TF.CreationDate,2020-09-14T23:14:01+08:00*%
%TF.ProjectId,ESP32-S2_adapter_board,45535033-322d-4533-925f-616461707465,rev?*%
%TF.SameCoordinates,Original*%
%TF.FileFunction,Legend,Top*%
%TF.FilePolarity,Positive*%
%FSLAX46Y46*%
G04 Gerber Fmt 4.6, Leading zero omitted, Abs format (unit mm)*
G04 Created by KiCad (PCBNEW (5.1.6)-1) date 2020-09-14 23:14:01*
%MOMM*%
%LPD*%
G01*
G04 APERTURE LIST*
%ADD10C,0.120000*%
%ADD11C,0.130000*%
%ADD12C,0.150000*%
G04 APERTURE END LIST*
D10*
X147750000Y-95900000D02*
X147750000Y-94500000D01*
X147750000Y-94400000D02*
X147750000Y-93800000D01*
X147750000Y-93133330D02*
X147750000Y-92533330D01*
X147750000Y-91866664D02*
X147750000Y-91266664D01*
X147750000Y-90599998D02*
X147750000Y-89999998D01*
X147750000Y-89333332D02*
X147750000Y-88733332D01*
X147750000Y-88066666D02*
X147750000Y-87466666D01*
X147750000Y-86800000D02*
X147750000Y-86200000D01*
X146550000Y-86200000D02*
X147150000Y-86200000D01*
X145250000Y-86200000D02*
X145850000Y-86200000D01*
X143950000Y-86200000D02*
X144550000Y-86200000D01*
D11*
X144445238Y-84952380D02*
X144940476Y-84952380D01*
X144673809Y-85333333D01*
X144788095Y-85333333D01*
X144864285Y-85380952D01*
X144902380Y-85428571D01*
X144940476Y-85523809D01*
X144940476Y-85761904D01*
X144902380Y-85857142D01*
X144864285Y-85904761D01*
X144788095Y-85952380D01*
X144559523Y-85952380D01*
X144483333Y-85904761D01*
X144445238Y-85857142D01*
X145245238Y-85047619D02*
X145283333Y-85000000D01*
X145359523Y-84952380D01*
X145550000Y-84952380D01*
X145626190Y-85000000D01*
X145664285Y-85047619D01*
X145702380Y-85142857D01*
X145702380Y-85238095D01*
X145664285Y-85380952D01*
X145207142Y-85952380D01*
X145702380Y-85952380D01*
X146045238Y-85571428D02*
X146654761Y-85571428D01*
X146997619Y-85904761D02*
X147111904Y-85952380D01*
X147302380Y-85952380D01*
X147378571Y-85904761D01*
X147416666Y-85857142D01*
X147454761Y-85761904D01*
X147454761Y-85666666D01*
X147416666Y-85571428D01*
X147378571Y-85523809D01*
X147302380Y-85476190D01*
X147150000Y-85428571D01*
X147073809Y-85380952D01*
X147035714Y-85333333D01*
X146997619Y-85238095D01*
X146997619Y-85142857D01*
X147035714Y-85047619D01*
X147073809Y-85000000D01*
X147150000Y-84952380D01*
X147340476Y-84952380D01*
X147454761Y-85000000D01*
X147759523Y-85047619D02*
X147797619Y-85000000D01*
X147873809Y-84952380D01*
X148064285Y-84952380D01*
X148140476Y-85000000D01*
X148178571Y-85047619D01*
X148216666Y-85142857D01*
X148216666Y-85238095D01*
X148178571Y-85380952D01*
X147721428Y-85952380D01*
X148216666Y-85952380D01*
D10*
X148850000Y-94500000D02*
X143650000Y-94500000D01*
X148850000Y-84700000D02*
X148850000Y-94500000D01*
X143650000Y-84700000D02*
X148850000Y-84700000D01*
X143650000Y-94500000D02*
X143650000Y-84700000D01*
X142550000Y-95900000D02*
X142550000Y-86200000D01*
X147750000Y-95900000D02*
X142550000Y-95900000D01*
X142550000Y-86200000D02*
X143650000Y-86200000D01*
X140250000Y-102300000D02*
X150150000Y-102300000D01*
X140250000Y-110900000D02*
X140250000Y-100500000D01*
X150150000Y-110900000D02*
X140250000Y-110900000D01*
X150150000Y-100500000D02*
X150150000Y-110900000D01*
X140250000Y-100500000D02*
X150150000Y-100500000D01*
D12*
X142916666Y-110552380D02*
X142345238Y-110552380D01*
X142630952Y-110552380D02*
X142630952Y-109552380D01*
X142535714Y-109695238D01*
X142440476Y-109790476D01*
X142345238Y-109838095D01*
X143535714Y-109552380D02*
X143630952Y-109552380D01*
X143726190Y-109600000D01*
X143773809Y-109647619D01*
X143821428Y-109742857D01*
X143869047Y-109933333D01*
X143869047Y-110171428D01*
X143821428Y-110361904D01*
X143773809Y-110457142D01*
X143726190Y-110504761D01*
X143630952Y-110552380D01*
X143535714Y-110552380D01*
X143440476Y-110504761D01*
X143392857Y-110457142D01*
X143345238Y-110361904D01*
X143297619Y-110171428D01*
X143297619Y-109933333D01*
X143345238Y-109742857D01*
X143392857Y-109647619D01*
X143440476Y-109600000D01*
X143535714Y-109552380D01*
X146821428Y-110885714D02*
X146821428Y-109457142D01*
X148202381Y-109552380D02*
X148821428Y-109552380D01*
X148488095Y-109933333D01*
X148630952Y-109933333D01*
X148726190Y-109980952D01*
X148773809Y-110028571D01*
X148821428Y-110123809D01*
X148821428Y-110361904D01*
X148773809Y-110457142D01*
X148726190Y-110504761D01*
X148630952Y-110552380D01*
X148345238Y-110552380D01*
X148250000Y-110504761D01*
X148202381Y-110457142D01*
X149202381Y-109647619D02*
X149250000Y-109600000D01*
X149345238Y-109552380D01*
X149583333Y-109552380D01*
X149678571Y-109600000D01*
X149726190Y-109647619D01*
X149773809Y-109742857D01*
X149773809Y-109838095D01*
X149726190Y-109980952D01*
X149154762Y-110552380D01*
X149773809Y-110552380D01*
X142630952Y-108832380D02*
X142821428Y-108832380D01*
X142916666Y-108784761D01*
X142964285Y-108737142D01*
X143059523Y-108594285D01*
X143107142Y-108403809D01*
X143107142Y-108022857D01*
X143059523Y-107927619D01*
X143011904Y-107880000D01*
X142916666Y-107832380D01*
X142726190Y-107832380D01*
X142630952Y-107880000D01*
X142583333Y-107927619D01*
X142535714Y-108022857D01*
X142535714Y-108260952D01*
X142583333Y-108356190D01*
X142630952Y-108403809D01*
X142726190Y-108451428D01*
X142916666Y-108451428D01*
X143011904Y-108403809D01*
X143059523Y-108356190D01*
X143107142Y-108260952D01*
X146821428Y-109165714D02*
X146821428Y-107737142D01*
X148250000Y-107927619D02*
X148297619Y-107880000D01*
X148392857Y-107832380D01*
X148630952Y-107832380D01*
X148726190Y-107880000D01*
X148773809Y-107927619D01*
X148821428Y-108022857D01*
X148821428Y-108118095D01*
X148773809Y-108260952D01*
X148202381Y-108832380D01*
X148821428Y-108832380D01*
X149154762Y-107832380D02*
X149821428Y-107832380D01*
X149392857Y-108832380D01*
X142726190Y-106540952D02*
X142630952Y-106493333D01*
X142583333Y-106445714D01*
X142535714Y-106350476D01*
X142535714Y-106302857D01*
X142583333Y-106207619D01*
X142630952Y-106160000D01*
X142726190Y-106112380D01*
X142916666Y-106112380D01*
X143011904Y-106160000D01*
X143059523Y-106207619D01*
X143107142Y-106302857D01*
X143107142Y-106350476D01*
X143059523Y-106445714D01*
X143011904Y-106493333D01*
X142916666Y-106540952D01*
X142726190Y-106540952D01*
X142630952Y-106588571D01*
X142583333Y-106636190D01*
X142535714Y-106731428D01*
X142535714Y-106921904D01*
X142583333Y-107017142D01*
X142630952Y-107064761D01*
X142726190Y-107112380D01*
X142916666Y-107112380D01*
X143011904Y-107064761D01*
X143059523Y-107017142D01*
X143107142Y-106921904D01*
X143107142Y-106731428D01*
X143059523Y-106636190D01*
X143011904Y-106588571D01*
X142916666Y-106540952D01*
X146821428Y-107445714D02*
X146821428Y-106017142D01*
X148250000Y-106207619D02*
X148297619Y-106160000D01*
X148392857Y-106112380D01*
X148630952Y-106112380D01*
X148726190Y-106160000D01*
X148773809Y-106207619D01*
X148821428Y-106302857D01*
X148821428Y-106398095D01*
X148773809Y-106540952D01*
X148202381Y-107112380D01*
X148821428Y-107112380D01*
X149726190Y-106112380D02*
X149250000Y-106112380D01*
X149202381Y-106588571D01*
X149250000Y-106540952D01*
X149345238Y-106493333D01*
X149583333Y-106493333D01*
X149678571Y-106540952D01*
X149726190Y-106588571D01*
X149773809Y-106683809D01*
X149773809Y-106921904D01*
X149726190Y-107017142D01*
X149678571Y-107064761D01*
X149583333Y-107112380D01*
X149345238Y-107112380D01*
X149250000Y-107064761D01*
X149202381Y-107017142D01*
X142488095Y-104392380D02*
X143154762Y-104392380D01*
X142726190Y-105392380D01*
X146821428Y-105725714D02*
X146821428Y-104297142D01*
X148250000Y-104487619D02*
X148297619Y-104440000D01*
X148392857Y-104392380D01*
X148630952Y-104392380D01*
X148726190Y-104440000D01*
X148773809Y-104487619D01*
X148821428Y-104582857D01*
X148821428Y-104678095D01*
X148773809Y-104820952D01*
X148202381Y-105392380D01*
X148821428Y-105392380D01*
X149154762Y-104392380D02*
X149773809Y-104392380D01*
X149440476Y-104773333D01*
X149583333Y-104773333D01*
X149678571Y-104820952D01*
X149726190Y-104868571D01*
X149773809Y-104963809D01*
X149773809Y-105201904D01*
X149726190Y-105297142D01*
X149678571Y-105344761D01*
X149583333Y-105392380D01*
X149297619Y-105392380D01*
X149202381Y-105344761D01*
X149154762Y-105297142D01*
X140678571Y-100952380D02*
X141297619Y-100952380D01*
X140964285Y-101333333D01*
X141107142Y-101333333D01*
X141202380Y-101380952D01*
X141250000Y-101428571D01*
X141297619Y-101523809D01*
X141297619Y-101761904D01*
X141250000Y-101857142D01*
X141202380Y-101904761D01*
X141107142Y-101952380D01*
X140821428Y-101952380D01*
X140726190Y-101904761D01*
X140678571Y-101857142D01*
X141678571Y-101047619D02*
X141726190Y-101000000D01*
X141821428Y-100952380D01*
X142059523Y-100952380D01*
X142154761Y-101000000D01*
X142202380Y-101047619D01*
X142250000Y-101142857D01*
X142250000Y-101238095D01*
X142202380Y-101380952D01*
X141630952Y-101952380D01*
X142250000Y-101952380D01*
X142678571Y-101571428D02*
X143440476Y-101571428D01*
X143869047Y-101904761D02*
X144011904Y-101952380D01*
X144250000Y-101952380D01*
X144345238Y-101904761D01*
X144392857Y-101857142D01*
X144440476Y-101761904D01*
X144440476Y-101666666D01*
X144392857Y-101571428D01*
X144345238Y-101523809D01*
X144250000Y-101476190D01*
X144059523Y-101428571D01*
X143964285Y-101380952D01*
X143916666Y-101333333D01*
X143869047Y-101238095D01*
X143869047Y-101142857D01*
X143916666Y-101047619D01*
X143964285Y-101000000D01*
X144059523Y-100952380D01*
X144297619Y-100952380D01*
X144440476Y-101000000D01*
X144821428Y-101047619D02*
X144869047Y-101000000D01*
X144964285Y-100952380D01*
X145202380Y-100952380D01*
X145297619Y-101000000D01*
X145345238Y-101047619D01*
X145392857Y-101142857D01*
X145392857Y-101238095D01*
X145345238Y-101380952D01*
X144773809Y-101952380D01*
X145392857Y-101952380D01*
X146821428Y-102285714D02*
X146821428Y-100857142D01*
X148202380Y-100952380D02*
X148821428Y-100952380D01*
X148488095Y-101333333D01*
X148630952Y-101333333D01*
X148726190Y-101380952D01*
X148773809Y-101428571D01*
X148821428Y-101523809D01*
X148821428Y-101761904D01*
X148773809Y-101857142D01*
X148726190Y-101904761D01*
X148630952Y-101952380D01*
X148345238Y-101952380D01*
X148250000Y-101904761D01*
X148202380Y-101857142D01*
X149202380Y-101047619D02*
X149250000Y-101000000D01*
X149345238Y-100952380D01*
X149583333Y-100952380D01*
X149678571Y-101000000D01*
X149726190Y-101047619D01*
X149773809Y-101142857D01*
X149773809Y-101238095D01*
X149726190Y-101380952D01*
X149154761Y-101952380D01*
X149773809Y-101952380D01*
X143011904Y-102672380D02*
X142821428Y-102672380D01*
X142726190Y-102720000D01*
X142678571Y-102767619D01*
X142583333Y-102910476D01*
X142535714Y-103100952D01*
X142535714Y-103481904D01*
X142583333Y-103577142D01*
X142630952Y-103624761D01*
X142726190Y-103672380D01*
X142916666Y-103672380D01*
X143011904Y-103624761D01*
X143059523Y-103577142D01*
X143107142Y-103481904D01*
X143107142Y-103243809D01*
X143059523Y-103148571D01*
X143011904Y-103100952D01*
X142916666Y-103053333D01*
X142726190Y-103053333D01*
X142630952Y-103100952D01*
X142583333Y-103148571D01*
X142535714Y-103243809D01*
X146821428Y-104005714D02*
X146821428Y-102577142D01*
X148250000Y-102767619D02*
X148297619Y-102720000D01*
X148392857Y-102672380D01*
X148630952Y-102672380D01*
X148726190Y-102720000D01*
X148773809Y-102767619D01*
X148821428Y-102862857D01*
X148821428Y-102958095D01*
X148773809Y-103100952D01*
X148202381Y-103672380D01*
X148821428Y-103672380D01*
X149202381Y-102767619D02*
X149250000Y-102720000D01*
X149345238Y-102672380D01*
X149583333Y-102672380D01*
X149678571Y-102720000D01*
X149726190Y-102767619D01*
X149773809Y-102862857D01*
X149773809Y-102958095D01*
X149726190Y-103100952D01*
X149154762Y-103672380D01*
X149773809Y-103672380D01*
D10*
X140250000Y-114800000D02*
X140250000Y-118600000D01*
X142950000Y-114800000D02*
X142950000Y-118600000D01*
X145550000Y-114800000D02*
X145550000Y-118600000D01*
X148050000Y-114800000D02*
X148050000Y-118600000D01*
X150550000Y-114800000D02*
X150550000Y-118600000D01*
X137850000Y-116800000D02*
X153150000Y-116800000D01*
X137850000Y-118600000D02*
X137850000Y-114800000D01*
X153150000Y-118600000D02*
X137850000Y-118600000D01*
X153150000Y-114800000D02*
X153150000Y-118600000D01*
X137850000Y-114800000D02*
X153150000Y-114800000D01*
D12*
X141359523Y-118252380D02*
X140788095Y-118252380D01*
X141073809Y-118252380D02*
X141073809Y-117252380D01*
X140978571Y-117395238D01*
X140883333Y-117490476D01*
X140788095Y-117538095D01*
X142311904Y-118252380D02*
X141740476Y-118252380D01*
X142026190Y-118252380D02*
X142026190Y-117252380D01*
X141930952Y-117395238D01*
X141835714Y-117490476D01*
X141740476Y-117538095D01*
X143388095Y-117347619D02*
X143435714Y-117300000D01*
X143530952Y-117252380D01*
X143769047Y-117252380D01*
X143864285Y-117300000D01*
X143911904Y-117347619D01*
X143959523Y-117442857D01*
X143959523Y-117538095D01*
X143911904Y-117680952D01*
X143340476Y-118252380D01*
X143959523Y-118252380D01*
X144578571Y-117252380D02*
X144673809Y-117252380D01*
X144769047Y-117300000D01*
X144816666Y-117347619D01*
X144864285Y-117442857D01*
X144911904Y-117633333D01*
X144911904Y-117871428D01*
X144864285Y-118061904D01*
X144816666Y-118157142D01*
X144769047Y-118204761D01*
X144673809Y-118252380D01*
X144578571Y-118252380D01*
X144483333Y-118204761D01*
X144435714Y-118157142D01*
X144388095Y-118061904D01*
X144340476Y-117871428D01*
X144340476Y-117633333D01*
X144388095Y-117442857D01*
X144435714Y-117347619D01*
X144483333Y-117300000D01*
X144578571Y-117252380D01*
X145940476Y-117252380D02*
X146559523Y-117252380D01*
X146226190Y-117633333D01*
X146369047Y-117633333D01*
X146464285Y-117680952D01*
X146511904Y-117728571D01*
X146559523Y-117823809D01*
X146559523Y-118061904D01*
X146511904Y-118157142D01*
X146464285Y-118204761D01*
X146369047Y-118252380D01*
X146083333Y-118252380D01*
X145988095Y-118204761D01*
X145940476Y-118157142D01*
X146892857Y-117252380D02*
X147559523Y-117252380D01*
X147130952Y-118252380D01*
X148440476Y-117252380D02*
X149059523Y-117252380D01*
X148726190Y-117633333D01*
X148869047Y-117633333D01*
X148964285Y-117680952D01*
X149011904Y-117728571D01*
X149059523Y-117823809D01*
X149059523Y-118061904D01*
X149011904Y-118157142D01*
X148964285Y-118204761D01*
X148869047Y-118252380D01*
X148583333Y-118252380D01*
X148488095Y-118204761D01*
X148440476Y-118157142D01*
X149630952Y-117680952D02*
X149535714Y-117633333D01*
X149488095Y-117585714D01*
X149440476Y-117490476D01*
X149440476Y-117442857D01*
X149488095Y-117347619D01*
X149535714Y-117300000D01*
X149630952Y-117252380D01*
X149821428Y-117252380D01*
X149916666Y-117300000D01*
X149964285Y-117347619D01*
X150011904Y-117442857D01*
X150011904Y-117490476D01*
X149964285Y-117585714D01*
X149916666Y-117633333D01*
X149821428Y-117680952D01*
X149630952Y-117680952D01*
X149535714Y-117728571D01*
X149488095Y-117776190D01*
X149440476Y-117871428D01*
X149440476Y-118061904D01*
X149488095Y-118157142D01*
X149535714Y-118204761D01*
X149630952Y-118252380D01*
X149821428Y-118252380D01*
X149916666Y-118204761D01*
X149964285Y-118157142D01*
X150011904Y-118061904D01*
X150011904Y-117871428D01*
X149964285Y-117776190D01*
X149916666Y-117728571D01*
X149821428Y-117680952D01*
X151664285Y-117585714D02*
X151664285Y-118252380D01*
X151426190Y-117204761D02*
X151188095Y-117919047D01*
X151807142Y-117919047D01*
X152378571Y-117252380D02*
X152473809Y-117252380D01*
X152569047Y-117300000D01*
X152616666Y-117347619D01*
X152664285Y-117442857D01*
X152711904Y-117633333D01*
X152711904Y-117871428D01*
X152664285Y-118061904D01*
X152616666Y-118157142D01*
X152569047Y-118204761D01*
X152473809Y-118252380D01*
X152378571Y-118252380D01*
X152283333Y-118204761D01*
X152235714Y-118157142D01*
X152188095Y-118061904D01*
X152140476Y-117871428D01*
X152140476Y-117633333D01*
X152188095Y-117442857D01*
X152235714Y-117347619D01*
X152283333Y-117300000D01*
X152378571Y-117252380D01*
X138714285Y-115685714D02*
X138714285Y-116352380D01*
X138476190Y-115304761D02*
X138238095Y-116019047D01*
X138857142Y-116019047D01*
X139666666Y-115352380D02*
X139476190Y-115352380D01*
X139380952Y-115400000D01*
X139333333Y-115447619D01*
X139238095Y-115590476D01*
X139190476Y-115780952D01*
X139190476Y-116161904D01*
X139238095Y-116257142D01*
X139285714Y-116304761D01*
X139380952Y-116352380D01*
X139571428Y-116352380D01*
X139666666Y-116304761D01*
X139714285Y-116257142D01*
X139761904Y-116161904D01*
X139761904Y-115923809D01*
X139714285Y-115828571D01*
X139666666Y-115780952D01*
X139571428Y-115733333D01*
X139380952Y-115733333D01*
X139285714Y-115780952D01*
X139238095Y-115828571D01*
X139190476Y-115923809D01*
X141214285Y-115685714D02*
X141214285Y-116352380D01*
X140976190Y-115304761D02*
X140738095Y-116019047D01*
X141357142Y-116019047D01*
X142214285Y-115352380D02*
X141738095Y-115352380D01*
X141690476Y-115828571D01*
X141738095Y-115780952D01*
X141833333Y-115733333D01*
X142071428Y-115733333D01*
X142166666Y-115780952D01*
X142214285Y-115828571D01*
X142261904Y-115923809D01*
X142261904Y-116161904D01*
X142214285Y-116257142D01*
X142166666Y-116304761D01*
X142071428Y-116352380D01*
X141833333Y-116352380D01*
X141738095Y-116304761D01*
X141690476Y-116257142D01*
X143964285Y-115685714D02*
X143964285Y-116352380D01*
X143726190Y-115304761D02*
X143488095Y-116019047D01*
X144107142Y-116019047D01*
X144916666Y-115685714D02*
X144916666Y-116352380D01*
X144678571Y-115304761D02*
X144440476Y-116019047D01*
X145059523Y-116019047D01*
X146464285Y-115685714D02*
X146464285Y-116352380D01*
X146226190Y-115304761D02*
X145988095Y-116019047D01*
X146607142Y-116019047D01*
X146892857Y-115352380D02*
X147511904Y-115352380D01*
X147178571Y-115733333D01*
X147321428Y-115733333D01*
X147416666Y-115780952D01*
X147464285Y-115828571D01*
X147511904Y-115923809D01*
X147511904Y-116161904D01*
X147464285Y-116257142D01*
X147416666Y-116304761D01*
X147321428Y-116352380D01*
X147035714Y-116352380D01*
X146940476Y-116304761D01*
X146892857Y-116257142D01*
X148964285Y-115685714D02*
X148964285Y-116352380D01*
X148726190Y-115304761D02*
X148488095Y-116019047D01*
X149107142Y-116019047D01*
X149440476Y-115447619D02*
X149488095Y-115400000D01*
X149583333Y-115352380D01*
X149821428Y-115352380D01*
X149916666Y-115400000D01*
X149964285Y-115447619D01*
X150011904Y-115542857D01*
X150011904Y-115638095D01*
X149964285Y-115780952D01*
X149392857Y-116352380D01*
X150011904Y-116352380D01*
X151714285Y-115685714D02*
X151714285Y-116352380D01*
X151476190Y-115304761D02*
X151238095Y-116019047D01*
X151857142Y-116019047D01*
X152761904Y-116352380D02*
X152190476Y-116352380D01*
X152476190Y-116352380D02*
X152476190Y-115352380D01*
X152380952Y-115495238D01*
X152285714Y-115590476D01*
X152190476Y-115638095D01*
D10*
%TO.C,J5*%
X153130000Y-119030000D02*
X153130000Y-120300000D01*
X151860000Y-119030000D02*
X153130000Y-119030000D01*
X138780000Y-121342929D02*
X138780000Y-121797071D01*
X139540000Y-121342929D02*
X139540000Y-121797071D01*
X138780000Y-123882929D02*
X138780000Y-124280000D01*
X139540000Y-123882929D02*
X139540000Y-124280000D01*
X138780000Y-132940000D02*
X138780000Y-126940000D01*
X139540000Y-132940000D02*
X138780000Y-132940000D01*
X139540000Y-126940000D02*
X139540000Y-132940000D01*
X140430000Y-124280000D02*
X140430000Y-126940000D01*
X141320000Y-121342929D02*
X141320000Y-121797071D01*
X142080000Y-121342929D02*
X142080000Y-121797071D01*
X141320000Y-123882929D02*
X141320000Y-124280000D01*
X142080000Y-123882929D02*
X142080000Y-124280000D01*
X141320000Y-132940000D02*
X141320000Y-126940000D01*
X142080000Y-132940000D02*
X141320000Y-132940000D01*
X142080000Y-126940000D02*
X142080000Y-132940000D01*
X142970000Y-124280000D02*
X142970000Y-126940000D01*
X143860000Y-121342929D02*
X143860000Y-121797071D01*
X144620000Y-121342929D02*
X144620000Y-121797071D01*
X143860000Y-123882929D02*
X143860000Y-124280000D01*
X144620000Y-123882929D02*
X144620000Y-124280000D01*
X143860000Y-132940000D02*
X143860000Y-126940000D01*
X144620000Y-132940000D02*
X143860000Y-132940000D01*
X144620000Y-126940000D02*
X144620000Y-132940000D01*
X145510000Y-124280000D02*
X145510000Y-126940000D01*
X146400000Y-121342929D02*
X146400000Y-121797071D01*
X147160000Y-121342929D02*
X147160000Y-121797071D01*
X146400000Y-123882929D02*
X146400000Y-124280000D01*
X147160000Y-123882929D02*
X147160000Y-124280000D01*
X146400000Y-132940000D02*
X146400000Y-126940000D01*
X147160000Y-132940000D02*
X146400000Y-132940000D01*
X147160000Y-126940000D02*
X147160000Y-132940000D01*
X148050000Y-124280000D02*
X148050000Y-126940000D01*
X148940000Y-121342929D02*
X148940000Y-121797071D01*
X149700000Y-121342929D02*
X149700000Y-121797071D01*
X148940000Y-123882929D02*
X148940000Y-124280000D01*
X149700000Y-123882929D02*
X149700000Y-124280000D01*
X148940000Y-132940000D02*
X148940000Y-126940000D01*
X149700000Y-132940000D02*
X148940000Y-132940000D01*
X149700000Y-126940000D02*
X149700000Y-132940000D01*
X150590000Y-124280000D02*
X150590000Y-126940000D01*
X151480000Y-121410000D02*
X151480000Y-121797071D01*
X152240000Y-121410000D02*
X152240000Y-121797071D01*
X151480000Y-123882929D02*
X151480000Y-124280000D01*
X152240000Y-123882929D02*
X152240000Y-124280000D01*
X151580000Y-126940000D02*
X151580000Y-132940000D01*
X151700000Y-126940000D02*
X151700000Y-132940000D01*
X151820000Y-126940000D02*
X151820000Y-132940000D01*
X151940000Y-126940000D02*
X151940000Y-132940000D01*
X152060000Y-126940000D02*
X152060000Y-132940000D01*
X152180000Y-126940000D02*
X152180000Y-132940000D01*
X151480000Y-132940000D02*
X151480000Y-126940000D01*
X152240000Y-132940000D02*
X151480000Y-132940000D01*
X152240000Y-126940000D02*
X152240000Y-132940000D01*
X153190000Y-126940000D02*
X153190000Y-124280000D01*
X137830000Y-126940000D02*
X153190000Y-126940000D01*
X137830000Y-124280000D02*
X137830000Y-126940000D01*
X153190000Y-124280000D02*
X137830000Y-124280000D01*
%TO.C,J4*%
X155610000Y-78330000D02*
X156940000Y-78330000D01*
X155610000Y-79660000D02*
X155610000Y-78330000D01*
X155610000Y-80930000D02*
X158270000Y-80930000D01*
X158270000Y-80930000D02*
X158270000Y-126710000D01*
X155610000Y-80930000D02*
X155610000Y-126710000D01*
X155610000Y-126710000D02*
X158270000Y-126710000D01*
%TO.C,J3*%
X130210000Y-78330000D02*
X131540000Y-78330000D01*
X130210000Y-79660000D02*
X130210000Y-78330000D01*
X130210000Y-80930000D02*
X132870000Y-80930000D01*
X132870000Y-80930000D02*
X132870000Y-126710000D01*
X130210000Y-80930000D02*
X130210000Y-126710000D01*
X130210000Y-126710000D02*
X132870000Y-126710000D01*
%TO.C,J2*%
X158150000Y-78330000D02*
X159480000Y-78330000D01*
X158150000Y-79660000D02*
X158150000Y-78330000D01*
X158150000Y-80930000D02*
X160810000Y-80930000D01*
X160810000Y-80930000D02*
X160810000Y-131790000D01*
X158150000Y-80930000D02*
X158150000Y-131790000D01*
X158150000Y-131790000D02*
X160810000Y-131790000D01*
%TO.C,J1*%
X132850000Y-78330000D02*
X134180000Y-78330000D01*
X132850000Y-79660000D02*
X132850000Y-78330000D01*
X132850000Y-80930000D02*
X135510000Y-80930000D01*
X135510000Y-80930000D02*
X135510000Y-131790000D01*
X132850000Y-80930000D02*
X132850000Y-131790000D01*
X132850000Y-131790000D02*
X135510000Y-131790000D01*
%TO.C,J5*%
D12*
X153796666Y-125407380D02*
X153796666Y-126121666D01*
X153749047Y-126264523D01*
X153653809Y-126359761D01*
X153510952Y-126407380D01*
X153415714Y-126407380D01*
X154749047Y-125407380D02*
X154272857Y-125407380D01*
X154225238Y-125883571D01*
X154272857Y-125835952D01*
X154368095Y-125788333D01*
X154606190Y-125788333D01*
X154701428Y-125835952D01*
X154749047Y-125883571D01*
X154796666Y-125978809D01*
X154796666Y-126216904D01*
X154749047Y-126312142D01*
X154701428Y-126359761D01*
X154606190Y-126407380D01*
X154368095Y-126407380D01*
X154272857Y-126359761D01*
X154225238Y-126312142D01*
%TD*%
M02*
