%TF.GenerationSoftware,KiCad,Pcbnew,(5.1.6)-1*%
%TF.CreationDate,2020-09-14T23:14:01+08:00*%
%TF.ProjectId,ESP32-S2_adapter_board,45535033-322d-4533-925f-616461707465,rev?*%
%TF.SameCoordinates,Original*%
%TF.FileFunction,Soldermask,Top*%
%TF.FilePolarity,Negative*%
%FSLAX46Y46*%
G04 Gerber Fmt 4.6, Leading zero omitted, Abs format (unit mm)*
G04 Created by KiCad (PCBNEW (5.1.6)-1) date 2020-09-14 23:14:01*
%MOMM*%
%LPD*%
G01*
G04 APERTURE LIST*
%ADD10O,1.800000X1.800000*%
%ADD11R,1.800000X1.800000*%
G04 APERTURE END LIST*
D10*
%TO.C,J5*%
X139160000Y-122840000D03*
X139160000Y-120300000D03*
X141700000Y-122840000D03*
X141700000Y-120300000D03*
X144240000Y-122840000D03*
X144240000Y-120300000D03*
X146780000Y-122840000D03*
X146780000Y-120300000D03*
X149320000Y-122840000D03*
X149320000Y-120300000D03*
X151860000Y-122840000D03*
D11*
X151860000Y-120300000D03*
%TD*%
D10*
%TO.C,J4*%
X156940000Y-125380000D03*
X156940000Y-122840000D03*
X156940000Y-120300000D03*
X156940000Y-117760000D03*
X156940000Y-115220000D03*
X156940000Y-112680000D03*
X156940000Y-110140000D03*
X156940000Y-107600000D03*
X156940000Y-105060000D03*
X156940000Y-102520000D03*
X156940000Y-99980000D03*
X156940000Y-97440000D03*
X156940000Y-94900000D03*
X156940000Y-92360000D03*
X156940000Y-89820000D03*
X156940000Y-87280000D03*
X156940000Y-84740000D03*
X156940000Y-82200000D03*
D11*
X156940000Y-79660000D03*
%TD*%
D10*
%TO.C,J3*%
X131540000Y-125380000D03*
X131540000Y-122840000D03*
X131540000Y-120300000D03*
X131540000Y-117760000D03*
X131540000Y-115220000D03*
X131540000Y-112680000D03*
X131540000Y-110140000D03*
X131540000Y-107600000D03*
X131540000Y-105060000D03*
X131540000Y-102520000D03*
X131540000Y-99980000D03*
X131540000Y-97440000D03*
X131540000Y-94900000D03*
X131540000Y-92360000D03*
X131540000Y-89820000D03*
X131540000Y-87280000D03*
X131540000Y-84740000D03*
X131540000Y-82200000D03*
D11*
X131540000Y-79660000D03*
%TD*%
D10*
%TO.C,J2*%
X159480000Y-130460000D03*
X159480000Y-127920000D03*
X159480000Y-125380000D03*
X159480000Y-122840000D03*
X159480000Y-120300000D03*
X159480000Y-117760000D03*
X159480000Y-115220000D03*
X159480000Y-112680000D03*
X159480000Y-110140000D03*
X159480000Y-107600000D03*
X159480000Y-105060000D03*
X159480000Y-102520000D03*
X159480000Y-99980000D03*
X159480000Y-97440000D03*
X159480000Y-94900000D03*
X159480000Y-92360000D03*
X159480000Y-89820000D03*
X159480000Y-87280000D03*
X159480000Y-84740000D03*
X159480000Y-82200000D03*
D11*
X159480000Y-79660000D03*
%TD*%
D10*
%TO.C,J1*%
X134180000Y-130460000D03*
X134180000Y-127920000D03*
X134180000Y-125380000D03*
X134180000Y-122840000D03*
X134180000Y-120300000D03*
X134180000Y-117760000D03*
X134180000Y-115220000D03*
X134180000Y-112680000D03*
X134180000Y-110140000D03*
X134180000Y-107600000D03*
X134180000Y-105060000D03*
X134180000Y-102520000D03*
X134180000Y-99980000D03*
X134180000Y-97440000D03*
X134180000Y-94900000D03*
X134180000Y-92360000D03*
X134180000Y-89820000D03*
X134180000Y-87280000D03*
X134180000Y-84740000D03*
X134180000Y-82200000D03*
D11*
X134180000Y-79660000D03*
%TD*%
M02*
